<?xml version="1.0"?>
<svg xmlns="http://www.w3.org/2000/svg" id="Capa_1" enable-background="new 0 0 508 508" height="512px" viewBox="0 0 508 508" width="512px" class=""><g><g><path d="m411.844 129.88c-13.85-12.58-31.38-20.27-49.36-21.65l-13.02-20.98c-4.92-7.93-7.52-17.05-7.52-26.38 0-6.451 7.23-49.3 7.23-49.3 1.094-4.828-2.648-11.57-9.88-11.57h-187.752c-4.888 0-9.06 3.534-9.864 8.356l-4.22 25.32c-3.019 18.111-10.21 35.612-20.798 50.611-13.829 19.592-22.669 42.531-25.232 66.35-2.768 25.718-15.547 138.944-19.988 186.432-2.664 28.488-1.519 56.601 4.352 83.652 4.826 22.239 11.449 44.269 19.684 65.476 5.143 13.245 17.602 21.802 31.74 21.802h63.252c15.948 0 29.582-10.868 33.155-26.43 7.406-32.245 11.161-65.517 11.161-98.89 0-17.115-.739-34.427-1.919-51.16 2.153 5.56 38.887 95.286 71.55 160.549 2.37 4.736 10.112 15.93 25.27 15.93h21.61c17.426 0 28.46-9.38 32.65-13.62 4.18-4.22 13.33-15.122 13.33-32.31 0-2.33-.17-4.68-.53-7l-5.34-35.08c-2.004-13.162-21.774-10.151-19.77 3.01 0 0 5.64 34.484 5.64 39.07 0 13.995-11.264 25.93-26 25.93h-21.59c-3.07 0-5.9-1.79-7.22-4.55-19.783-41.397-38.386-80.995-54.536-118.887 2.405-87.292 35.41-170.978 93.178-236.394 13.282 1.06 26.949 7.059 37.278 16.501 12.56 11.49 19.31 26.3 19.51 42.83 0 4.629-1.73 8.55-4.75 11.54l-41.47 41.02c-14.47 13.521-19.696 33.166-19.88 47.63-.043 3.38.26 6.77.76 10.09l5.53 36.25c2 13.136 21.77 10.126 19.77-3.01 0 0-6.06-36.504-6.06-43.33 0-12.47 5.08-24.65 13.95-33.41l41.46-41.02c11.774-11.808 10.69-25.98 10.69-25.98-.001-29.891-18.151-50.238-26.051-57.398zm-67.489-12.943c-23.482 26.958-43.007 56.807-58.212 88.636-21.017-4.938-41.87-11.184-62.23-18.619 20.787-31.317 46.349-58.836 76.145-81.951l34.703-3.527zm-73.752 126.003c-16.752-4.135-33.418-9.05-49.724-14.643-1.46-6.256-4.353-17.233-3.61-22.48 19.836 7.235 40.125 13.382 60.582 18.338-2.576 6.199-4.993 12.463-7.248 18.785zm-90.871-91.213c8.679-3.453 17.491-6.603 26.387-9.427-1.501 9.291-3.129 19.664-4.606 29.688-7.025-7.024-14.287-13.782-21.781-20.261zm45.174-.227c3.174-19.927 6.416-38.762 6.534-39.522l33.346-3.389c-14.446 13.229-27.762 27.559-39.88 42.911zm35.398-131.5h67.271l-3.55 22.258-75.442 7.667zm61.67 42.57c.163 6.746 1.289 13.398 3.34 19.763l-89.906 9.138c1.627-6.965 3.54-13.863 5.698-20.682zm-161.961-42.57h78.811s-11.351 29.029-11.921 30.557l-70.559-9.056c.304-1.508 3.669-21.501 3.669-21.501zm-9.042 40.975 69.466 8.916c-2.113 7.122-3.956 14.325-5.532 21.584l-72.461-11.068c3.312-6.255 6.168-12.756 8.527-19.432zm-20.057 37.902 80.4 12.281c-.003.021-.006.042-.01.062-.149.858-.718 4.154-1.549 9.078-16.157 4.693-32.113 10.413-47.59 17.055-12.254-9.464-25.045-18.234-38.328-26.277 2.124-4.193 4.479-8.27 7.077-12.199zm-14.732 30.97c30.225 18.639 57.719 41.269 81.908 67.426-.562 4.764-1.593 22.275-1.557 28.341-24.232-29.343-52.685-54.515-84.925-75.11.929-7.014 2.46-13.928 4.574-20.657zm-7.151 42.899c9.875 6.705 19.353 13.881 28.42 21.513-11.459 6.674-22.57 13.981-33.253 21.87.198-1.714 3.286-29.779 4.833-43.383zm-8.126 71.381c16.294-13.496 33.832-25.508 52.277-35.79 16.243 15.479 36.603 39.05 44.104 51.835.435 25.219-6.54 50.728-20.169 73.771-7.256 12.268-20.152 19.065-34.49 18.163-14.305-.893-26.223-9.208-31.881-22.246-7.937-18.284-11.961-37.751-11.961-57.86-.001-6.891.948-17.249 2.12-27.873zm103.226 232.967c-1.475 6.421-7.093 10.906-13.663 10.906h-63.252c-5.823 0-10.963-3.549-13.096-9.042-7.857-20.236-14.177-41.257-18.782-62.478-5.419-24.971-6.939-55.997-3.666-80.359 8.856 21.266 28.073 34.691 49.71 35.946 22.759 1.32 42.578-10.408 52.95-27.942 7.057-11.931 12.537-24.467 16.37-37.311 2.366 23.91 4.083 50.13 4.083 75.866-.001 31.869-3.586 63.634-10.654 94.414zm22.673-225.764c12.392 3.952 24.944 7.521 37.547 10.666-6.01 20.03-10.431 40.573-13.187 61.44-9.588-24.79-17.839-48.816-24.36-72.106zm157.98 125.67c0 5.523-4.477 10-10 10s-10-4.477-10-10 4.477-10 10-10 10 4.477 10 10z" data-original="#000000" class="active-path" data-old_color="#000000" fill="#FFFFFF"/></g></g> </svg>
